<svg xmlns="http://www.w3.org/2000/svg" class="emblem" viewBox="0 0 512 512" width="512" height="512" role="img" aria-labelledby="title desc"><title id="title">Stewardence Inventory emblem</title><desc id="desc">Continuity cradle and nested hexagonal aperture. Decorative deterministic page signature; not an evidence completeness measurement.</desc><defs><radialGradient id="cosmic"><stop stop-color="#1A0F2E"/><stop offset="1" stop-color="#1A0F2E" stop-opacity="0"/></radialGradient><linearGradient id="left" x1="1.2814967607382357%" y1="38.75244728280675%" x2="98.71850323926176%" y2="61.24755271719325%"><stop stop-color="#0D1B3A"/><stop offset="1" stop-color="#3B1F6B"/></linearGradient><linearGradient id="right" x1="98.71850323926176%" y1="38.75244728280675%" x2="1.2814967607382357%" y2="61.24755271719325%"><stop stop-color="#0F3A3A"/><stop offset="1" stop-color="#9565D5"/></linearGradient><linearGradient id="purple"><stop stop-color="#6D2AFF"/><stop offset="1" stop-color="#A45CFF"/></linearGradient><filter id="soft" x="-20%" y="-20%" width="140%" height="140%"><feGaussianBlur stdDeviation="2"/></filter><filter id="feather"><feGaussianBlur stdDeviation="1.2"/></filter><filter id="glow" x="-100%" y="-100%" width="300%" height="300%"><feGaussianBlur stdDeviation="6"/></filter><mask id="eye"><rect width="512" height="512" fill="white"/><path d="M146 256 Q256 116 366 256 Q256 396 146 256Z" fill="black" opacity=".7" filter="url(#feather)"/></mask></defs><style>.meta{transform-origin:256px 256px;opacity:.002}</style><g class="meta"><circle cx="256" cy="256" r="110" fill="none" stroke="url(#purple)" stroke-width="14"/></g><g mask="url(#eye)" opacity=".92" style="isolation:isolate"><path d="M 88 256 C 166 145 278 128 368 194 C 300 162 216 199 155 256 C 217 318 294 350 369 316 C 273 384 160 369 88 256 Z" fill="url(#left)" filter="url(#soft)"/><path d="M 424 256 C 346 145 234 128 144 194 C 212 162 296 199 357 256 C 295 318 218 350 143 316 C 239 384 352 369 424 256 Z" fill="url(#right)" filter="url(#soft)" style="mix-blend-mode:screen"/></g><polygon points="256.000,228.000 280.249,242.000 280.249,270.000 256.000,284.000 231.751,270.000 231.751,242.000" fill="#8651C9" filter="url(#glow)" opacity=".4"/><polygon points="256.000,214.000 292.373,235.000 292.373,277.000 256.000,298.000 219.627,277.000 219.627,235.000" fill="none" stroke="#7441B7" stroke-width="3"/><polygon points="256.000,228.000 280.249,242.000 280.249,270.000 256.000,284.000 231.751,270.000 231.751,242.000" fill="#8651C9"/><polygon points="256.000,238.000 271.588,247.000 271.588,265.000 256.000,274.000 240.412,265.000 240.412,247.000" fill="none" stroke="#0A0F1C" stroke-width="1.5" opacity="0.4"/><polygon points="256.000,244.000 266.392,250.000 266.392,262.000 256.000,268.000 245.608,262.000 245.608,250.000" fill="none" stroke="#0A0F1C" stroke-width="1.5" opacity="0.25"/><polygon points="256.000,249.000 262.062,252.500 262.062,259.500 256.000,263.000 249.938,259.500 249.938,252.500" fill="none" stroke="#0A0F1C" stroke-width="1.5" opacity="0.15"/><line x1="252.237" y1="52.035" x2="252.016" y2="40.037" stroke="#8955C6" stroke-width="2" opacity="0.6245"/><line x1="291.682" y1="55.145" x2="293.781" y2="43.330" stroke="#8955C6" stroke-width="2" opacity="0.6910"/><line x1="333.611" y1="67.340" x2="338.177" y2="56.243" stroke="#8955C6" stroke-width="2" opacity="0.6628"/><line x1="365.637" y1="83.966" x2="372.086" y2="73.846" stroke="#8955C6" stroke-width="2" opacity="0.6749"/><line x1="403.043" y1="114.598" x2="411.692" y2="106.280" stroke="#8955C6" stroke-width="2" opacity="0.6599"/><line x1="425.064" y1="141.836" x2="435.009" y2="135.121" stroke="#8955C6" stroke-width="2" opacity="0.6672"/><line x1="443.228" y1="174.997" x2="454.242" y2="170.232" stroke="#8955C6" stroke-width="2" opacity="0.6662"/><line x1="456.878" y1="220.446" x2="468.694" y2="218.355" stroke="#8955C6" stroke-width="2" opacity="0.6425"/><line x1="459.998" y1="255.097" x2="471.998" y2="255.044" stroke="#8955C6" stroke-width="2" opacity="0.7335"/><line x1="455.894" y1="296.726" x2="467.652" y2="299.121" stroke="#8955C6" stroke-width="2" opacity="0.6435"/><line x1="443.086" y1="337.332" x2="454.091" y2="342.117" stroke="#8955C6" stroke-width="2" opacity="0.6904"/><line x1="426.835" y1="367.496" x2="436.884" y2="374.055" stroke="#8955C6" stroke-width="2" opacity="0.7317"/><line x1="403.471" y1="396.955" x2="412.146" y2="405.246" stroke="#8955C6" stroke-width="2" opacity="0.6734"/><line x1="369.640" y1="425.416" x2="376.325" y2="435.382" stroke="#8955C6" stroke-width="2" opacity="0.6847"/><line x1="338.469" y1="442.587" x2="343.320" y2="453.563" stroke="#8955C6" stroke-width="2" opacity="0.6540"/><line x1="292.230" y1="456.757" x2="294.362" y2="468.566" stroke="#8955C6" stroke-width="2" opacity="0.7492"/><line x1="252.944" y1="459.977" x2="252.764" y2="471.976" stroke="#8955C6" stroke-width="2" opacity="0.6420"/><line x1="219.404" y1="456.691" x2="217.251" y2="468.496" stroke="#8955C6" stroke-width="2" opacity="0.7620"/><line x1="179.489" y1="445.109" x2="174.988" y2="456.233" stroke="#8955C6" stroke-width="2" opacity="0.7319"/><line x1="140.640" y1="424.250" x2="133.854" y2="434.147" stroke="#8955C6" stroke-width="2" opacity="0.6637"/><line x1="111.712" y1="400.211" x2="103.224" y2="408.694" stroke="#8955C6" stroke-width="2" opacity="0.7231"/><line x1="85.892" y1="368.602" x2="75.886" y2="375.226" stroke="#8955C6" stroke-width="2" opacity="0.7656"/><line x1="68.722" y1="336.888" x2="57.706" y2="341.646" stroke="#8955C6" stroke-width="2" opacity="0.6927"/><line x1="56.347" y1="297.887" x2="44.602" y2="300.350" stroke="#8955C6" stroke-width="2" opacity="0.7071"/><line x1="52.001" y1="255.384" x2="40.001" y2="255.348" stroke="#8955C6" stroke-width="2" opacity="0.7121"/><line x1="55.742" y1="217.107" x2="43.962" y2="214.819" stroke="#8955C6" stroke-width="2" opacity="0.7077"/><line x1="67.616" y1="177.723" x2="56.534" y2="173.118" stroke="#8955C6" stroke-width="2" opacity="0.7025"/><line x1="84.931" y1="144.863" x2="74.868" y2="138.325" stroke="#8955C6" stroke-width="2" opacity="0.6295"/><line x1="110.562" y1="112.948" x2="102.007" y2="104.534" stroke="#8955C6" stroke-width="2" opacity="0.7505"/><line x1="140.260" y1="88.011" x2="133.452" y2="78.129" stroke="#8955C6" stroke-width="2" opacity="0.7095"/><line x1="177.960" y1="67.517" x2="173.369" y2="56.430" stroke="#8955C6" stroke-width="2" opacity="0.7624"/><line x1="212.014" y1="56.799" x2="209.427" y2="45.081" stroke="#8955C6" stroke-width="2" opacity="0.7230"/></svg>